<?xml version="1.0" standalone="no"?><!DOCTYPE svg PUBLIC "-//W3C//DTD SVG 1.1//EN" "http://www.w3.org/Graphics/SVG/1.1/DTD/svg11.dtd"><svg t="1601000991636" class="icon" viewBox="0 0 1024 1024" version="1.1" xmlns="http://www.w3.org/2000/svg" p-id="32162" xmlns:xlink="http://www.w3.org/1999/xlink" width="56" height="56"><defs><style type="text/css"></style></defs><path d="M916.896448 1024H107.103552C47.943847 1024 0 976.056153 0 916.896448V107.103552C0 47.943847 47.943847 0 107.103552 0h809.832388c59.159705 0 107.103552 47.943847 107.103552 107.103552v809.832388c-0.039492 59.120213-47.983339 107.06406-107.143044 107.06406z" fill="#BF5EE3" p-id="32163"></path><path d="M254.291951 302.551737l46.561611-46.522118 46.522118 46.522118-46.482626 46.522119-46.601103-46.522119z m-71.402368 176.531297h65.833931v65.833932H182.889583v-65.833932z m592.386903 0h65.833931v65.833932h-65.833931v-65.833932z m-55.486907-130.009178l-46.56161-46.522119 46.56161-46.522118 46.522118 46.522118-46.522118 46.522119z m-240.706545-166.184273h65.833932v65.833931h-65.833932V182.889583z m32.89722 131.62837c-108.604265 0-197.462301 88.858035-197.462301 197.462301 0 72.38968 39.49246 134.945736 98.73115 171.12083v59.23869c0 36.214586 29.619345 65.833931 65.833931 65.833931v32.897219h65.833932v-32.897219c36.214586 0 65.833931-29.619345 65.833931-65.833931v-59.23869c59.23869-36.214586 98.73115-98.73115 98.73115-171.12083-0.039492-108.604265-88.897528-197.462301-197.501793-197.462301z" fill="#FFFFFF" p-id="32164"></path></svg>