<?xml version="1.0" standalone="no"?><!DOCTYPE svg PUBLIC "-//W3C//DTD SVG 1.1//EN" "http://www.w3.org/Graphics/SVG/1.1/DTD/svg11.dtd"><svg t="1601001166736" class="icon" viewBox="0 0 1102 1024" version="1.1" xmlns="http://www.w3.org/2000/svg" p-id="34508" xmlns:xlink="http://www.w3.org/1999/xlink" width="60.265625" height="56"><defs><style type="text/css"></style></defs><path d="M1060.942769 41.826462H41.747692A22.134154 22.134154 0 0 0 19.692308 63.960615v177.23077c0 12.288 9.924923 22.212923 22.134154 22.212923h22.134153V905.846154c0 48.915692 39.699692 88.615385 88.615385 88.615384h797.617231c48.836923 0 88.536615-39.699692 88.536615-88.615384V263.404308h22.212923a22.134154 22.134154 0 0 0 22.134154-22.134154V64.039385a22.134154 22.134154 0 0 0-22.134154-22.212923z" fill="#0084FF" p-id="34509"></path><path d="M994.461538 905.846154c0 24.418462-19.849846 44.347077-44.347076 44.347077H152.654769a44.268308 44.268308 0 0 1-44.347077-44.347077V263.404308h886.153846V905.846154z" fill="#4C84FF" p-id="34510"></path><path d="M1038.808615 219.057231H63.960615V86.173538h974.848zM327.68 551.384615h403.140923c47.734154 0 86.409846-38.675692 86.409846-86.409846A86.409846 86.409846 0 0 0 730.820923 374.153846H327.68c-47.655385 0-86.331077 38.675692-86.331077 86.409846A86.409846 86.409846 0 0 0 327.601231 551.384615z" fill="#FFFFFF" p-id="34511"></path><path d="M285.538462 460.563692c0-23.236923 18.904615-42.141538 42.062769-42.141538h403.298461c23.158154 0 42.062769 18.904615 42.06277 42.141538a42.062769 42.062769 0 0 1-42.141539 46.473846H327.68a42.062769 42.062769 0 0 1-42.062769-42.062769v-4.411077z" fill="#FFFFFF" p-id="34512"></path></svg>