<?xml version="1.0" standalone="no"?><!DOCTYPE svg PUBLIC "-//W3C//DTD SVG 1.1//EN" "http://www.w3.org/Graphics/SVG/1.1/DTD/svg11.dtd"><svg t="1600996841279" class="icon" viewBox="0 0 1024 1024" version="1.1" xmlns="http://www.w3.org/2000/svg" p-id="4384" width="32" height="32" xmlns:xlink="http://www.w3.org/1999/xlink"><defs><style type="text/css"></style></defs><path d="M991.051677 612.686277s43.418971-35.274976-35.957976-116.006922L527.671989 80.128636H216.939199l99.054933 99.048933s24.422984 38.672974-0.676999 72.588951l-59.70496 58.342961s-48.847967 29.85298-97.694934-19.670987l-76.662949-78.700947v287.649806L544.627978 962.750041s59.02896 59.70496 119.41192 0l327.012779-350.062764zM188.829218 263.683512c22.308985 21.396986 57.740961 20.655986 79.137946-1.652999s20.653986-57.733961-1.652998-79.130946L94.715281 15.57868C72.406296-5.818306 36.97632-5.082307 15.579335 17.224678-5.817651 39.533663-5.082652 74.965639 17.225333 96.362625l171.603885 167.320887z" p-id="4385"></path></svg>