<?xml version="1.0" standalone="no"?><!DOCTYPE svg PUBLIC "-//W3C//DTD SVG 1.1//EN" "http://www.w3.org/Graphics/SVG/1.1/DTD/svg11.dtd"><svg t="1601001082143" class="icon" viewBox="0 0 1057 1024" version="1.1" xmlns="http://www.w3.org/2000/svg" p-id="49540" xmlns:xlink="http://www.w3.org/1999/xlink" width="57.8046875" height="56"><defs><style type="text/css"></style></defs><path d="M523.215756 547.028964c-11.593964 0-23.320052-3.137967-33.69186-9.380871l-170.441173-101.90136a70.455625 70.455625 0 0 1-33.69186-60.381098v-203.802721c0-24.839489 12.915213-47.994385 33.69186-60.348066L489.523896 9.280456a65.79822 65.79822 0 0 1 67.38372 0l170.441173 101.90136a70.455625 70.455625 0 0 1 33.69186 60.381098v203.802721c0 24.839489-12.915213 47.994385-33.69186 60.348067l-170.441173 102.033485c-10.371808 6.110779-22.097896 9.248746-33.69186 9.248746z m0-484.469126a7.101716 7.101716 0 0 0-3.501311 0.990937l-170.441173 101.901361a7.266872 7.266872 0 0 0-3.501311 6.275934v203.802721c0 2.609468 1.321249 4.954685 3.501311 6.209873l170.441173 101.90136a7.002622 7.002622 0 0 0 7.002622 0l170.441173-101.90136a7.266872 7.266872 0 0 0 3.501311-6.242904v-203.802721c0-2.609468-1.321249-4.954685-3.501311-6.242903l-170.441173-101.86833a7.101716 7.101716 0 0 0-3.501311-0.990937z" fill="#1768DE" p-id="49541"></path><path d="M508.582919 284.001239l-121.852227-68.077376c-8.092653-4.492248-8.323871-16.779867-0.330312-21.635459l121.819195-73.725717a11.098495 11.098495 0 0 1 11.726089 0.132125l116.501166 73.725717a12.683994 12.683994 0 0 1-0.330312 21.371209L519.58232 283.869114a10.900308 10.900308 0 0 1-10.999401 0.132125z" fill="#FF2C2C" p-id="49542"></path><path d="M237.891947 1022.678751a65.401846 65.401846 0 0 1-33.69186-9.380871l-170.375111-101.901361A70.125312 70.125312 0 0 1 0.000991 851.114515v-203.802721a70.356531 70.356531 0 0 1 33.69186-60.44716l170.375111-101.901361a65.765189 65.765189 0 0 1 67.38372 0l170.507235 101.934392a70.488656 70.488656 0 0 1 33.69186 60.381098v203.802721a70.356531 70.356531 0 0 1-33.69186 60.44716L271.583806 1013.430005c-10.404839 6.110779-22.130928 9.248746-33.691859 9.248746z m0-484.56822a7.101716 7.101716 0 0 0-3.501311 0.990937l-170.375111 101.934392a7.266872 7.266872 0 0 0-3.501311 6.275934v203.802721c0 2.642499 1.321249 4.987717 3.501311 6.275935l170.375111 101.90136a7.002622 7.002622 0 0 0 7.002622 0l170.37511-101.934391a7.266872 7.266872 0 0 0 3.501311-6.275935v-203.802721c0-2.642499-1.321249-4.987717-3.501311-6.275935L241.393258 539.101468a7.101716 7.101716 0 0 0-3.501311-0.990937z" fill="#1768DE" p-id="49543"></path><path d="M246.975536 759.651025l-121.852226-68.077376c-8.092653-4.492248-8.323871-16.779867-0.330313-21.635459l121.819196-73.725717a11.098495 11.098495 0 0 1 11.726088 0.132125l116.501167 73.725717a12.683994 12.683994 0 0 1-0.330313 21.371209L257.974938 759.5189a10.900308 10.900308 0 0 1-10.999402 0.132125z" fill="#FF2C2C" p-id="49544"></path><path d="M808.605628 1022.678751c-11.593964 0-23.320052-3.137967-33.69186-9.380871l-170.441174-101.901361a70.455625 70.455625 0 0 1-33.691859-60.381098v-203.80272c0-24.839489 12.915213-47.994385 33.691859-60.348067l170.441174-101.901361a65.79822 65.79822 0 0 1 67.38372 0l170.441173 101.901361a70.455625 70.455625 0 0 1 33.69186 60.381098v203.802721c0 24.839489-12.915213 47.994385-33.69186 60.348066l-170.441173 101.901361c-10.371808 6.275935-22.097896 9.380871-33.69186 9.380871z m0-484.469127a7.101716 7.101716 0 0 0-3.501311 0.990938l-170.441174 101.90136a7.266872 7.266872 0 0 0-3.501311 6.275935v203.802721c0 2.609468 1.321249 4.954685 3.501311 6.209872l170.441174 101.90136a7.002622 7.002622 0 0 0 7.002622 0l170.441173-101.90136a7.266872 7.266872 0 0 0 3.501311-6.242904v-203.802721c0-2.609468-1.321249-4.954685-3.501311-6.242903l-170.441173-101.868329a7.101716 7.101716 0 0 0-3.501311-0.990937z" fill="#1768DE" p-id="49545"></path><path d="M793.972791 759.617994l-121.852227-68.110407c-8.092653-4.492248-8.323871-16.779867-0.330312-21.66849l121.819195-73.626624a11.098495 11.098495 0 0 1 11.726088 0.132125l116.501167 73.758748a12.683994 12.683994 0 0 1-0.330312 21.404241l-116.534198 68.110407a11.23062 11.23062 0 0 1-10.999401 0z" fill="#FF2C2C" p-id="49546"></path></svg>